<svg xmlns="http://www.w3.org/2000/svg" width="40" height="48" viewBox="0 0 40 48">
    <g fill="none" fill-rule="nonzero">
        <path fill="#E0635D" d="M20 42c10.667-10.109 16-18.109 16-24 0-8.837-7.163-16-16-16S4 9.163 4 18c0 5.891 5.333 13.891 16 24z"/>
        <g stroke="#FFF">
            <path d="M13.5 13.5h13v1h-13zM18.25 24.5h3.5-.25V20a.5.5 0 0 0-.5-.5h-2a.5.5 0 0 0-.5.5v4.5h-.25z"/>
            <path d="M12.5 14.118v.585l.04.198a2 2 0 0 0 3.288 1.095l.31-.276.329.255c.435.338.97.525 1.533.525.624 0 1.211-.229 1.667-.636l.333-.299.333.299A2.488 2.488 0 0 0 22 16.5c.564 0 1.098-.187 1.533-.525l.328-.255.311.276A2 2 0 0 0 27.46 14.9l.04-.198v-.592l-.079-.169a1.991 1.991 0 0 0-.321-.642l-.048-.077-1.223-2.447a.5.5 0 0 0-.447-.276H14.618a.5.5 0 0 0-.447.276L12.9 13.3a2.31 2.31 0 0 0-.354.727l-.046.091z"/>
        </g>
    </g>
</svg>
